<?xml version="1.0" encoding="utf-8"?>
<!-- Generator: Adobe Illustrator 16.0.0, SVG Export Plug-In . SVG Version: 6.00 Build 0)  -->
<!DOCTYPE svg PUBLIC "-//W3C//DTD SVG 1.1//EN" "http://www.w3.org/Graphics/SVG/1.1/DTD/svg11.dtd">
<svg version="1.1" id="图层_1" xmlns="http://www.w3.org/2000/svg" xmlns:xlink="http://www.w3.org/1999/xlink" x="0px" y="0px"
	 width="78px" height="21.378px" viewBox="0 4.249 78 21.378" enable-background="new 0 4.249 78 21.378" xml:space="preserve">
<path d="M27.411,15.434c0-4.152-2.904-6.552-6.048-6.552c-2.952,0-5.952,2.328-5.952,6c0,3.503,2.64,6,6.312,6
	c2.424,0,4.464-1.056,5.688-2.951l-1.968-0.864c-0.84,1.2-2.208,1.848-3.672,1.848c-2.112,0-3.552-1.272-3.888-3.479H27.411z
	 M17.955,13.801c0.336-1.896,1.68-3.12,3.456-3.12c1.776,0,3.36,1.32,3.72,3.12H17.955z"/>
<path d="M33.125,20.737h1.992l3.648-9.552h1.752V9.217h-5.568v1.968h1.584l-2.448,6.432l-2.448-6.432h1.488V9.217h-5.712v1.968
	h1.992L33.125,20.737z"/>
<path d="M52.723,15.434c0-4.152-2.904-6.552-6.048-6.552c-2.952,0-5.952,2.328-5.952,6c0,3.503,2.641,6,6.313,6
	c2.424,0,4.464-1.056,5.688-2.951l-1.968-0.864c-0.84,1.2-2.208,1.848-3.672,1.848c-2.112,0-3.552-1.272-3.888-3.479H52.723z
	 M43.268,13.801c0.336-1.896,1.68-3.12,3.455-3.12c1.776,0,3.36,1.32,3.721,3.12H43.268z"/>
<path d="M56.425,18.577h-2.231v1.968h6.936v-1.968h-2.448v-3.239c0-2.593,0.792-4.057,3.408-4.057h1.2V9.025h-1.465
	c-1.416,0-2.855,0.84-3.575,2.736h-0.048V9.217h-4.057v1.968h2.28V18.577z"/>
<path fill="#0072FF" d="M2.606,18.505H0.374v2.04h6.792v-2.04H5.054v-5.592h2.328l3.696,7.632h3.528v-2.04h-1.992l-2.88-5.928
	c2.184-0.552,3.36-1.992,3.36-4.08c0-2.472-1.512-4.248-5.184-4.248H0.374v2.04h2.232V18.505z M5.054,10.873V6.289H8.03
	c1.56,0,2.568,0.768,2.568,2.208c0,1.08-0.48,2.376-2.784,2.376H5.054z"/>
<rect x="64.168" y="24.031" fill="#0072FF" width="6.207" height="1.596"/>
<rect x="66.875" y="21.438" fill="#0072FF" width="4.531" height="1.594"/>
<path d="M72.045,20.312h-2.268l-3.713-9.126h-1.896V9.217h5.616v1.968H68.44l2.448,6.264l2.399-6.264h-1.512V9.217h5.495v1.968
	h-1.68L72.045,20.312z"/>
</svg>
