<?xml version="1.0" encoding="utf-8"?>
<!-- Generator: Adobe Illustrator 16.0.0, SVG Export Plug-In . SVG Version: 6.00 Build 0)  -->
<!DOCTYPE svg PUBLIC "-//W3C//DTD SVG 1.1//EN" "http://www.w3.org/Graphics/SVG/1.1/DTD/svg11.dtd">
<svg version="1.1" id="图层_1" xmlns="http://www.w3.org/2000/svg" xmlns:xlink="http://www.w3.org/1999/xlink" x="0px" y="0px"
	 width="131.475px" height="131.476px" viewBox="0 0 131.475 131.476" enable-background="new 0 0 131.475 131.476"
	 xml:space="preserve">
<polygon fill="#28499C" points="65.737,109.563 71.215,104.085 76.694,109.563 109.563,76.693 104.084,71.216 109.563,65.738 
	104.084,60.26 109.563,54.782 76.694,21.913 71.215,27.391 65.737,21.913 60.26,27.391 54.781,21.913 21.912,54.782 27.391,60.26 
	21.912,65.738 27.391,71.216 21.912,76.693 54.781,109.563 60.26,104.085 "/>
<rect x="112.771" y="47.034" transform="matrix(0.7071 0.7071 -0.7071 0.7071 74.0326 -69.1737)" fill="#28499C" width="15.495" height="15.494"/>
<rect x="68.946" y="3.209" transform="matrix(0.7072 0.7071 -0.7071 0.7072 30.206 -51.0185)" fill="#28499C" width="15.495" height="15.495"/>
<rect x="47.034" y="3.209" transform="matrix(0.7071 -0.7071 0.7071 0.7071 8.2966 41.9431)" fill="#28499C" width="15.495" height="15.495"/>
<rect x="3.209" y="47.034" transform="matrix(0.7071 -0.7071 0.7071 0.7071 -35.5286 23.7942)" fill="#28499C" width="15.495" height="15.494"/>
<rect x="3.209" y="68.946" transform="matrix(-0.7071 -0.7071 0.7071 -0.7071 -35.53 138.6688)" fill="#28499C" width="15.495" height="15.495"/>
<rect x="47.033" y="112.771" transform="matrix(-0.7071 -0.7071 0.7071 -0.7071 8.298 244.4742)" fill="#28499C" width="15.496" height="15.496"/>
<rect x="68.946" y="112.771" transform="matrix(-0.7071 -0.7071 0.7071 -0.7071 45.7024 259.9683)" fill="#28499C" width="15.495" height="15.496"/>
<rect x="112.771" y="68.946" transform="matrix(-0.7071 0.7071 -0.7071 -0.7071 259.9693 45.7117)" fill="#28499C" width="15.495" height="15.496"/>
<polygon fill="#324E9F" points="90.389,84.91 98.62,76.68 93.143,71.202 98.606,65.738 93.157,60.287 98.635,54.809 90.356,46.532 
	95.834,41.054 90.356,35.576 84.877,41.054 76.694,32.869 71.215,38.347 65.737,32.869 60.273,38.333 54.795,32.855 46.564,41.086 
	41.086,35.608 35.607,41.086 41.086,46.564 32.854,54.795 38.332,60.273 32.868,65.738 38.348,71.216 32.868,76.693 41.053,84.879 
	35.575,90.357 41.053,95.835 46.531,90.357 54.809,98.635 60.287,93.156 65.737,98.605 71.202,93.143 76.68,98.62 84.911,90.39 
	90.389,95.867 95.868,90.39 "/>
<rect x="50.894" y="116.632" transform="matrix(-0.7072 -0.707 0.707 -0.7072 8.2945 244.445)" fill="#324E9F" width="7.747" height="7.746"/>
<rect x="72.424" y="116.631" transform="matrix(-0.7071 -0.7071 0.7071 -0.7071 45.0445 259.6667)" fill="#324E9F" width="7.747" height="7.747"/>
<rect x="116.837" y="72.629" transform="matrix(0.7072 0.707 -0.707 0.7072 89.4317 -62.9441)" fill="#324E9F" width="7.747" height="7.745"/>
<rect x="116.631" y="50.894" transform="matrix(0.7072 0.707 -0.707 0.7072 74.0101 -69.1644)" fill="#324E9F" width="7.747" height="7.747"/>
<rect x="72.834" y="7.096" transform="matrix(0.7071 0.7071 -0.7071 0.7071 30.2243 -51.0275)" fill="#324E9F" width="7.748" height="7.747"/>
<rect x="50.894" y="7.096" transform="matrix(0.707 0.7072 -0.7072 0.707 23.8022 -35.5158)" fill="#324E9F" width="7.747" height="7.748"/>
<rect x="7.096" y="50.894" transform="matrix(-0.7071 -0.7071 0.7071 -0.7071 -19.9968 101.2518)" fill="#324E9F" width="7.747" height="7.747"/>
<rect x="7.097" y="72.833" transform="matrix(-0.7071 -0.7071 0.7071 -0.7071 -35.5119 138.7046)" fill="#324E9F" width="7.748" height="7.748"/>
<polygon fill="#222CEF" points="65.737,109.563 71.215,104.085 76.694,109.563 109.563,76.693 104.084,71.216 109.563,65.738 
	104.084,60.26 109.563,54.782 76.694,21.913 71.215,27.391 65.737,21.913 60.26,27.391 54.781,21.913 21.912,54.782 27.391,60.26 
	21.912,65.738 27.391,71.216 21.912,76.693 54.781,109.563 60.26,104.085 "/>
<rect x="112.771" y="47.034" transform="matrix(0.7071 0.7071 -0.7071 0.7071 74.0326 -69.1737)" fill="#222CEF" width="15.495" height="15.494"/>
<rect x="68.946" y="3.209" transform="matrix(0.7072 0.7071 -0.7071 0.7072 30.206 -51.0185)" fill="#222CEF" width="15.495" height="15.495"/>
<rect x="47.034" y="3.209" transform="matrix(0.7071 -0.7071 0.7071 0.7071 8.2966 41.9431)" fill="#222CEF" width="15.495" height="15.495"/>
<rect x="3.209" y="47.034" transform="matrix(0.7071 -0.7071 0.7071 0.7071 -35.5286 23.7942)" fill="#222CEF" width="15.495" height="15.494"/>
<rect x="3.209" y="68.946" transform="matrix(-0.7071 -0.7071 0.7071 -0.7071 -35.53 138.6688)" fill="#222CEF" width="15.495" height="15.495"/>
<rect x="47.033" y="112.771" transform="matrix(-0.7071 -0.7071 0.7071 -0.7071 8.298 244.4742)" fill="#222CEF" width="15.496" height="15.496"/>
<rect x="68.946" y="112.771" transform="matrix(-0.7071 -0.7071 0.7071 -0.7071 45.7024 259.9683)" fill="#222CEF" width="15.495" height="15.496"/>
<rect x="112.771" y="68.946" transform="matrix(-0.7071 0.7071 -0.7071 -0.7071 259.9693 45.7117)" fill="#222CEF" width="15.495" height="15.496"/>
<polygon fill="#3435FF" points="90.389,84.91 98.62,76.68 93.143,71.202 98.606,65.738 93.157,60.287 98.635,54.809 90.356,46.532 
	95.834,41.054 90.356,35.576 84.877,41.054 76.694,32.869 71.215,38.347 65.737,32.869 60.273,38.333 54.795,32.855 46.564,41.086 
	41.086,35.608 35.607,41.086 41.086,46.564 32.854,54.795 38.332,60.273 32.868,65.738 38.348,71.216 32.868,76.693 41.053,84.879 
	35.575,90.357 41.053,95.835 46.531,90.357 54.809,98.635 60.287,93.156 65.737,98.605 71.202,93.143 76.68,98.62 84.911,90.39 
	90.389,95.867 95.868,90.39 "/>
<rect x="50.894" y="116.632" transform="matrix(-0.7072 -0.707 0.707 -0.7072 8.2945 244.445)" fill="#3435FF" width="7.747" height="7.746"/>
<rect x="72.424" y="116.631" transform="matrix(-0.7071 -0.7071 0.7071 -0.7071 45.0445 259.6667)" fill="#3435FF" width="7.747" height="7.747"/>
<rect x="116.837" y="72.629" transform="matrix(0.7072 0.707 -0.707 0.7072 89.4317 -62.9441)" fill="#3435FF" width="7.747" height="7.745"/>
<rect x="116.631" y="50.894" transform="matrix(0.7072 0.707 -0.707 0.7072 74.0101 -69.1644)" fill="#3435FF" width="7.747" height="7.747"/>
<rect x="72.834" y="7.096" transform="matrix(0.7071 0.7071 -0.7071 0.7071 30.2243 -51.0275)" fill="#3435FF" width="7.748" height="7.747"/>
<rect x="50.894" y="7.096" transform="matrix(0.707 0.7072 -0.7072 0.707 23.8022 -35.5158)" fill="#3435FF" width="7.747" height="7.748"/>
<rect x="7.096" y="50.894" transform="matrix(-0.7071 -0.7071 0.7071 -0.7071 -19.9968 101.2518)" fill="#3435FF" width="7.747" height="7.747"/>
<rect x="7.097" y="72.833" transform="matrix(-0.7071 -0.7071 0.7071 -0.7071 -35.5119 138.7046)" fill="#3435FF" width="7.748" height="7.748"/>
</svg>
