<?xml version="1.0" encoding="utf-8"?>
<!-- Generator: Adobe Illustrator 16.0.0, SVG Export Plug-In . SVG Version: 6.00 Build 0)  -->
<!DOCTYPE svg PUBLIC "-//W3C//DTD SVG 1.1//EN" "http://www.w3.org/Graphics/SVG/1.1/DTD/svg11.dtd">
<svg version="1.1" id="图层_1" xmlns="http://www.w3.org/2000/svg" xmlns:xlink="http://www.w3.org/1999/xlink" x="0px" y="0px"
	 width="801.711px" height="100.704px" viewBox="0 0 801.711 100.704" enable-background="new 0 0 801.711 100.704"
	 xml:space="preserve">
<path fill="#2CFFC7" d="M47.307,84.465c0.453-0.232,0.916-0.443,1.388-0.635l-7.525,3.176c1.451-0.551,2.907-0.926,4.44-1.178
	c-2.792,0.375-5.583,0.75-8.374,1.125c3.023-0.386,6.007-0.242,9.021,0.16c-2.791-0.376-5.582-0.751-8.374-1.126
	c8.97,1.359,17.469,4.675,26.24,6.871c15.506,3.882,30.504,4.214,45.147-2.909c6.851-3.332,12.653-9.134,18.388-14.132
	c5.73-4.997,11.406-10.065,17.418-14.729c-2.125,1.644-4.25,3.285-6.375,4.927c3.258-2.496,6.638-5.045,10.441-6.658l-7.524,3.177
	c0.762-0.298,1.519-0.539,2.328-0.675c-2.792,0.375-5.583,0.752-8.374,1.127c0.432-0.047,0.836-0.055,1.268-0.004
	c-2.791-0.375-5.583-0.75-8.374-1.125c0.185,0.031,0.364,0.08,0.539,0.146c-2.508-1.059-5.016-2.117-7.524-3.176
	c0.167,0.064,0.325,0.148,0.472,0.25c-2.125-1.643-4.25-3.283-6.375-4.926c0.465,0.365,0.686,0.715,1.094,1.227
	c-1.642-2.125-3.283-4.25-4.926-6.375c1.234,1.871,2.164,3.906,3.372,5.791c3.773,5.881,8.313,10.648,14.396,14.192
	c7.989,4.653,17.847,6.448,26.994,5.843c12.149-0.807,23.58-4.373,35.54-6.072c-2.791,0.375-5.582,0.75-8.374,1.125
	c3.28-0.403,6.524-0.553,9.815-0.202c-2.791-0.375-5.582-0.75-8.374-1.125c2.126,0.31,4.124,0.819,6.128,1.604l-7.525-3.178
	c1.719,0.775,3.27,1.688,4.79,2.803c-2.125-1.643-4.25-3.283-6.375-4.926c3.482,2.813,6.618,5.928,10.174,8.676
	c5.851,4.521,11.387,7.42,18.573,9.793c9.098,3.006,18.927,2.766,28.341,4.01c-2.791-0.375-5.582-0.75-8.374-1.125
	c9.981,1.502,19.145,5.326,28.599,8.654c4.672,1.645,9.426,3.066,14.316,3.896c9.169,1.553,18.637,3.041,27.843,0.795
	c13.735-3.352,25.98-13.498,37.52-21.168c5.834-3.877,11.745-7.982,18.193-10.789l-7.525,3.176c1.154-0.479,2.321-0.906,3.555-1.121
	c-2.791,0.375-5.583,0.75-8.374,1.125c0.398-0.051,0.78-0.072,1.183-0.051c-2.792-0.375-5.583-0.75-8.374-1.125
	c12.549,1.732,25.063,5.221,37.332,8.316c11.952,3.02,23.855,6.231,35.849,9.082c25.785,6.127,52.588,10.65,79.168,9.213
	c9.533-0.518,19.063-1.777,28.467-3.354c8.055-1.351,15.791-3.647,23.725-5.474c-2.791,0.375-5.582,0.75-8.375,1.125
	c1.182-0.137,2.203-0.146,3.389-0.051c-2.793-0.375-5.584-0.75-8.375-1.125c1.557,0.266,2.963,0.686,4.422,1.291l-7.523-3.176
	c0.99,0.493,1.877,0.987,2.771,1.639c-2.125-1.643-4.25-3.285-6.375-4.928c0.494,0.41,0.934,0.869,1.318,1.381
	c-1.643-2.125-3.285-4.25-4.926-6.375c0.387,0.512,0.711,1.059,0.973,1.643c-1.059-2.508-2.117-5.016-3.176-7.523
	c0.258,0.57,0.439,1.166,0.551,1.782c-0.375-2.792-0.75-5.583-1.125-8.374c0.107,0.598,0.125,1.197,0.055,1.801
	c0.375-2.791,0.75-5.582,1.125-8.375c-0.072,0.596-0.246,1.162-0.52,1.695c1.059-2.508,2.117-5.016,3.176-7.523
	c-0.166,0.256-0.332,0.513-0.5,0.769c-12.793,19.754,3.867,48.312,27.201,47.399c18.611-0.729,37.48-3.608,55.266-9.226
	c9.846-3.108,19.463-7.095,28.814-11.45c7.322-3.41,14.336-7.443,21.775-10.602c-2.51,1.059-5.018,2.117-7.525,3.176
	c4.568-1.857,9.215-3.338,14.111-4.01l-8.373,1.125c3.277-0.361,6.516-0.369,9.791,0.037c-2.791-0.375-5.582-0.75-8.375-1.125
	c2.5,0.393,4.861,1.004,7.219,1.926c-2.508-1.057-5.018-2.115-7.523-3.176c1.959,0.859,3.75,1.877,5.477,3.145
	c-2.125-1.643-4.25-3.283-6.375-4.926c3.063,2.482,5.172,5.777,8.02,8.465c8.219,7.76,18.646,11.977,29.943,12.301
	c11.111,0.32,22.801-3.676,33.455-6.543c19.012-5.119,37.838-10.902,56.461-17.297c7.799-2.678,14.57-7.207,18.824-14.477
	c3.951-6.752,5.625-16.703,3.176-24.272c-2.467-7.622-7.189-14.976-14.477-18.826c-7.232-3.821-16.268-5.924-24.271-3.175
	C748.807,6,735.698,10.177,722.489,14.027c-6.377,1.859-12.773,3.644-19.191,5.354c-6.428,1.713-12.953,3.761-19.549,4.706
	c2.791-0.375,5.584-0.75,8.375-1.125c-1.555,0.155-3.045,0.194-4.604,0.069c2.791,0.375,5.582,0.75,8.373,1.125
	c-1.162-0.188-2.154-0.44-3.264-0.84c2.51,1.058,5.018,2.117,7.525,3.175c-1.066-0.518-1.922-1.049-2.861-1.77
	c2.125,1.642,4.25,3.284,6.375,4.926c-2.518-2.269-4.354-5.141-6.813-7.46c-3.936-3.708-8.506-7.2-13.471-9.447
	c-8.277-3.748-14.111-5.166-23.117-6.228c-4.781-0.563-9.203-0.116-13.979,0.526c-11.166,1.5-20.951,5.262-31.158,10.153
	c-7.348,3.521-14.469,7.442-21.967,10.657c2.508-1.059,5.018-2.117,7.525-3.176c-14.504,6.087-29.67,10.249-45.248,12.426
	c2.793-0.375,5.584-0.75,8.375-1.125c-5.783,0.763-11.58,1.26-17.408,1.488c9.066,15.799,18.133,31.599,27.199,47.399
	c7.668-11.842,6.637-27.752-0.561-39.488c-7.654-12.48-21.934-19.409-36.279-19.956c-8.168-0.311-15.947,2.678-23.785,4.481
	c-5.789,1.331-11.635,2.376-17.521,3.171c2.791-0.375,5.582-0.75,8.373-1.125c-17.148,2.195-34.375,1.856-51.496-0.431
	c2.791,0.375,5.582,0.75,8.373,1.126c-28.061-3.884-55.17-12.395-82.687-18.849c-7.28-1.707-14.592-3.318-21.948-4.66
	c-7.294-1.33-12.498-1.997-19.812-0.165c-3.673,0.919-7.454,2.754-10.743,4.238c-7.669,3.46-14.654,8.406-21.617,13.078
	c-7.73,5.187-15.483,11.227-24.091,14.908c2.508-1.058,5.016-2.117,7.525-3.175c-0.902,0.365-1.808,0.689-2.772,0.841
	c2.791-0.376,5.582-0.751,8.374-1.126c-2.96,0.297-6.149-0.184-9.086-0.571c2.792,0.375,5.583,0.75,8.374,1.125
	c-9.628-1.453-18.489-5.188-27.609-8.407c-12.287-4.337-24.856-5.117-37.683-6.735c2.792,0.376,5.583,0.751,8.374,1.126
	c-3.216-0.469-6.321-1.156-9.37-2.294c2.508,1.059,5.016,2.117,7.525,3.176c-2.233-0.944-4.243-2.079-6.174-3.55
	c2.125,1.641,4.25,3.283,6.375,4.925c-5.589-4.657-10.58-10.163-17.17-13.497c-8.573-4.337-17.61-6.698-27.29-6.573
	c-12.633,0.162-24.645,4.247-37.023,6.077c2.791-0.375,5.583-0.75,8.374-1.125c-3.381,0.441-6.759,0.677-10.161,0.362
	c2.791,0.375,5.582,0.75,8.374,1.125c-1.418-0.206-2.719-0.516-4.059-1.024l7.525,3.176c-0.635-0.272-1.232-0.608-1.793-1.009
	c2.125,1.642,4.25,3.284,6.375,4.926c-0.583-0.421-1.104-0.907-1.563-1.46c1.642,2.125,3.284,4.25,4.926,6.375
	c-1.36-1.801-2.268-3.814-3.423-5.741c-3.233-5.395-7.591-10.196-13.008-13.457c-8.048-4.846-17.899-5.763-26.906-3.51
	c-6.882,1.721-13.135,5.364-18.767,9.554c-11.395,8.479-21.545,18.329-32.706,27.059c2.125-1.642,4.25-3.283,6.375-4.925
	c-1.472,1.131-2.912,2.108-4.624,2.845l7.525-3.176c-1.451,0.55-2.907,0.926-4.44,1.176c2.791-0.375,5.583-0.75,8.374-1.125
	c-3.023,0.385-6.007,0.243-9.021-0.159c2.791,0.375,5.582,0.75,8.374,1.125c-9.125-1.383-17.756-4.791-26.689-6.98
	c-6.506-1.595-13.327-2.8-20.031-2.859c-9.316-0.081-17.419,2.339-25.704,6.363C8.723,33.362,2.975,41.84,1.034,48.892
	c-2.077,7.54-1.139,17.581,3.175,24.272c4.336,6.727,10.794,12.646,18.826,14.477C31.658,89.605,39.344,88.333,47.307,84.465"/>
</svg>
