<?xml version="1.0" encoding="utf-8"?>
<!-- Generator: Adobe Illustrator 16.0.0, SVG Export Plug-In . SVG Version: 6.00 Build 0)  -->
<!DOCTYPE svg PUBLIC "-//W3C//DTD SVG 1.1//EN" "http://www.w3.org/Graphics/SVG/1.1/DTD/svg11.dtd">
<svg version="1.1" id="图层_1" xmlns="http://www.w3.org/2000/svg" xmlns:xlink="http://www.w3.org/1999/xlink" x="0px" y="0px"
	 width="574px" height="110.5px" viewBox="0 0 574 110.5" enable-background="new 0 0 574 110.5" xml:space="preserve">
<path fill="#FFFFFF" d="M59.254,55.084h1c0,7.361-5.968,13.329-13.33,13.33c-7.362-0.001-13.329-5.969-13.33-13.33
	c0.001-7.362,5.967-13.329,13.33-13.33c7.362,0.001,13.33,5.967,13.33,13.33H59.254h-1c-0.011-6.258-5.074-11.318-11.33-11.33
	c-6.257,0.012-11.318,5.072-11.33,11.33c0.012,6.257,5.073,11.318,11.33,11.33c6.256-0.012,11.319-5.073,11.33-11.33H59.254z"/>
<path fill="#FFFFFF" d="M74.092,55.084h1c0,12.493-10.127,22.62-22.621,22.621c-12.494-0.001-22.62-10.128-22.621-22.621
	c0.001-12.493,10.127-22.621,22.621-22.621s22.621,10.128,22.621,22.621H74.092h-1c-0.021-11.388-9.233-20.601-20.621-20.621
	c-11.388,0.021-20.6,9.233-20.621,20.621c0.021,11.389,9.233,20.602,20.621,20.621c11.389-0.021,20.601-9.232,20.621-20.621H74.092z
	"/>
<path fill="#FFFFFF" d="M78.001,55.084h1c0,18.941-15.354,34.296-34.296,34.297C25.764,89.38,10.409,74.025,10.409,55.084
	c0-18.942,15.354-34.295,34.297-34.296c18.94,0,34.295,15.354,34.296,34.296H78.001h-1C76.969,37.248,62.542,22.82,44.706,22.788
	c-17.837,0.032-32.266,14.46-32.297,32.296c0.031,17.836,14.46,32.266,32.297,32.297C62.542,87.35,76.97,72.92,77.002,55.084H78.001
	z"/>
<path fill="#FFFFFF" d="M109.119,55.084h1c0,29.292-23.745,53.037-53.038,53.038C27.79,108.121,4.045,84.376,4.044,55.084
	C4.045,25.792,27.79,2.047,57.081,2.047c29.292,0,53.037,23.745,53.038,53.037H109.119h-1C108.068,26.897,85.269,4.098,57.081,4.047
	C28.895,4.098,6.095,26.897,6.044,55.084c0.051,28.188,22.851,50.986,51.037,51.038c28.188-0.052,50.986-22.853,51.038-51.038
	H109.119z"/>
<path fill="#FFFFFF" d="M161,20.742c-18.458,0-33.422,14.964-33.422,33.423S142.542,87.588,161,87.588
	c18.459,0,33.423-14.964,33.423-33.423S179.459,20.742,161,20.742 M161,75.796c-11.785,0-21.338-9.687-21.338-21.631
	c0-11.946,9.553-21.631,21.338-21.631s21.338,9.685,21.338,21.631C182.338,66.109,172.785,75.796,161,75.796"/>
<path fill="#FFFFFF" d="M235.135,46.132V65.54c0,5.377-4.358,9.735-9.735,9.735s-9.734-4.358-9.734-9.735V46.132v-7.596h-12.146
	v27.17c0,12.085,9.796,21.882,21.881,21.882c3.515,0,8.751-1.557,9.767-5.387v5.336h12.084V66.311
	c0.006-0.203,0.03-0.399,0.03-0.604v-27.17h-12.146V46.132L235.135,46.132z"/>
<path fill="#FFFFFF" d="M390.425,39.288c-4.484,0-8.668,1.246-12.266,3.379v-3.793h-12.146V57.38v47.283v0.405h12.146V84.134
	c3.598,2.132,7.78,3.38,12.266,3.38c13.316,0,24.111-10.797,24.111-24.113C414.536,50.083,403.741,39.288,390.425,39.288
	 M390.425,75.367c-6.609,0-11.968-5.358-11.968-11.967c0-6.609,5.357-11.967,11.968-11.967c6.609,0,11.967,5.357,11.967,11.967
	C402.392,70.009,397.033,75.367,390.425,75.367"/>
<path fill="#FFFFFF" d="M444.95,38.874c-13.315,0-24.111,10.796-24.111,24.112s10.796,24.111,24.111,24.111
	c4.359,0,8.438-1.174,11.968-3.197v3.976h12.146v-6.958V63.139v-0.152C469.063,49.67,458.268,38.874,444.95,38.874 M444.95,74.953
	c-6.608,0-11.967-5.357-11.967-11.967c0-6.608,5.357-11.967,11.967-11.967c6.61,0,11.968,5.358,11.968,11.967
	S451.561,74.953,444.95,74.953"/>
<path fill="#FFFFFF" d="M500.394,74.953c-6.609,0-11.967-5.357-11.967-11.967c0-6.608,5.356-11.968,11.967-11.968
	c2.937,0,5.622,1.063,7.704,2.817l6.656-6.656l1.932-1.932c-4.293-3.945-10.002-6.374-16.292-6.374
	c-13.317,0-24.112,10.796-24.112,24.111c0,13.317,10.795,24.113,24.112,24.113c6.32,0,12.054-2.451,16.354-6.431l-8.59-8.588
	C506.068,73.868,503.359,74.953,500.394,74.953"/>
<path fill="#FFFFFF" d="M540.115,52.622c0.057,0.032,0.108,0.066,0.163,0.1C540.225,52.688,540.172,52.654,540.115,52.622
	L540.115,52.622z"/>
<path fill="#FFFFFF" d="M569.293,59.148c-0.877-5.471-3.584-10.314-7.486-13.9c0,0,0-0.001-0.001-0.001
	c-0.534-0.492-1.09-0.959-1.668-1.401c-0.005-0.004-0.011-0.009-0.018-0.012c-0.565-0.434-1.149-0.843-1.756-1.225
	c-0.035-0.023-0.07-0.043-0.105-0.065c-0.576-0.359-1.165-0.699-1.773-1.011c-0.015-0.008-0.031-0.016-0.048-0.023
	c-0.074-0.037-0.148-0.07-0.222-0.106c-0.563-0.279-1.131-0.545-1.718-0.781c-0.164-0.066-0.336-0.121-0.503-0.184
	c-0.523-0.198-1.052-0.393-1.594-0.553c-0.266-0.079-0.541-0.138-0.811-0.208c-0.46-0.121-0.918-0.247-1.39-0.34
	c-0.113-0.022-0.231-0.032-0.348-0.052c-0.297-0.048-0.594-0.093-0.893-0.137c-0.354-0.051-0.701-0.118-1.062-0.153h-0.001
	c-0.288-0.03-0.584-0.026-0.875-0.045c-0.503-0.032-1.002-0.076-1.512-0.076h-0.001c-0.808,0-1.605,0.043-2.395,0.121
	c-0.363,0.036-0.719,0.104-1.076,0.157c-0.41,0.059-0.824,0.107-1.229,0.187c-0.48,0.096-0.951,0.224-1.42,0.349
	c-0.263,0.068-0.529,0.125-0.788,0.202c-0.553,0.167-1.092,0.363-1.628,0.568c-0.158,0.06-0.319,0.111-0.476,0.173
	c-0.6,0.244-1.184,0.515-1.756,0.804c-0.078,0.039-0.161,0.075-0.24,0.116c-0.616,0.318-1.218,0.663-1.803,1.033
	c-0.027,0.018-0.059,0.034-0.087,0.053c-0.61,0.39-1.203,0.805-1.774,1.245c-0.002,0.001-0.004,0.003-0.006,0.005
	c-0.58,0.447-1.141,0.92-1.676,1.416l-0.003,0.001c-4.76,4.404-7.758,10.687-7.758,17.683c0,7.027,3.035,13.318,7.835,17.724
	l-0.016,0.017c0.535,0.49,1.092,0.959,1.669,1.4c0.006,0.003,0.011,0.008,0.017,0.012c0.566,0.435,1.152,0.842,1.756,1.227
	c0.035,0.021,0.071,0.043,0.107,0.064c0.575,0.36,1.166,0.697,1.772,1.012c0.088,0.045,0.179,0.084,0.268,0.129
	c0.563,0.281,1.134,0.545,1.719,0.781c0.165,0.065,0.335,0.121,0.503,0.184c0.524,0.199,1.052,0.39,1.595,0.552
	c0.265,0.08,0.537,0.14,0.808,0.208c0.461,0.122,0.921,0.248,1.393,0.342c0.408,0.079,0.825,0.129,1.24,0.188
	c0.354,0.052,0.701,0.119,1.06,0.153c0.786,0.078,1.582,0.121,2.39,0.121c0.809,0,1.605-0.043,2.395-0.121
	c0.363-0.037,0.719-0.104,1.076-0.156c0.411-0.061,0.825-0.109,1.229-0.188c0.479-0.095,0.949-0.224,1.421-0.348
	c0.262-0.07,0.528-0.126,0.787-0.203c0.554-0.166,1.093-0.362,1.628-0.565c0.158-0.062,0.318-0.111,0.476-0.177
	c0.599-0.241,1.183-0.513,1.754-0.801c0.081-0.04,0.163-0.076,0.242-0.117c0.617-0.317,1.217-0.664,1.802-1.032
	c0.029-0.019,0.061-0.035,0.088-0.055c0.61-0.388,1.202-0.804,1.775-1.245c0.002-0.002,0.004-0.003,0.006-0.005
	c0.579-0.445,1.139-0.918,1.674-1.416h0.002l-8.589-8.588h-0.001c-0.5,0.43-1.041,0.811-1.606,1.152
	c-0.043,0.025-0.086,0.054-0.13,0.078c-0.547,0.32-1.123,0.599-1.723,0.83c-0.071,0.026-0.146,0.054-0.218,0.08
	c-0.596,0.217-1.211,0.394-1.847,0.515c-0.07,0.014-0.145,0.02-0.213,0.032c-0.66,0.111-1.335,0.185-2.027,0.185
	c-0.674,0-1.331-0.071-1.975-0.179c-0.202-0.032-0.396-0.086-0.597-0.131c-0.438-0.098-0.869-0.211-1.29-0.354
	c-0.213-0.074-0.423-0.151-0.631-0.237c-0.396-0.162-0.781-0.348-1.154-0.55c-0.188-0.103-0.381-0.194-0.562-0.306
	c-0.428-0.262-0.832-0.555-1.223-0.865c-1.392-1.109-2.541-2.509-3.327-4.126h12.883h8.63h0.001h9.163h3.611
	c0.371-1.683,0.582-3.425,0.582-5.219C569.627,61.677,569.493,60.4,569.293,59.148 M556.84,59.148h-9.2h-13.452
	c0.739-2.186,2.109-4.063,3.868-5.479c0.002-0.001,0.004-0.002,0.005-0.002c0.321-0.259,0.656-0.496,1.004-0.72
	c0.205-0.132,0.408-0.265,0.622-0.385c0.373-0.21,0.761-0.389,1.159-0.559c0.217-0.092,0.427-0.193,0.649-0.273
	c0.438-0.156,0.89-0.271,1.348-0.375c0.204-0.048,0.399-0.113,0.607-0.149c0.671-0.118,1.357-0.188,2.063-0.188
	c0.358,0,0.701,0.06,1.051,0.095c0.304,0.03,0.615,0.032,0.913,0.082c0.041,0.007,0.084,0.01,0.125,0.017
	c-0.004-0.001-0.008-0.001-0.011-0.002c0.004,0.001,0.008,0.001,0.012,0.002c0.048,0.008,0.094,0.014,0.143,0.022
	c0.619,0.117,1.221,0.288,1.803,0.496c0.001,0,0.001,0.001,0.001,0.001c0.06,0.021,0.119,0.043,0.178,0.063
	c0.002,0.001,0.003,0.002,0.005,0.002c-0.002,0-0.004-0.001-0.006-0.002c0.609,0.23,1.195,0.505,1.752,0.826
	c-0.037-0.021-0.079-0.035-0.117-0.055c0.039,0.02,0.081,0.033,0.118,0.055h0.001c0.055,0.032,0.107,0.066,0.162,0.1
	c0.987,0.59,1.88,1.317,2.656,2.156c0.051,0.056,0.101,0.11,0.148,0.166c0.688,0.771,1.275,1.63,1.746,2.563
	c0.011,0.022,0.021,0.047,0.033,0.069C556.462,58.15,556.669,58.641,556.84,59.148L556.84,59.148L556.84,59.148z"/>
<path fill="#FFFFFF" d="M272.311,45.924V43.99v-5.229H260.06v24.042v1.676v23.059h12.251V73.23V71.72v-7.663v-0.595v-0.78
	c0.528-4.856,4.565-8.653,9.556-8.682h15.553V41.848h-15.662C278.367,41.848,274.395,42.896,272.311,45.924"/>
<path fill="#FFFFFF" d="M307.026,50.732c-0.161,0.873-0.257,1.77-0.257,2.688c0,7.398,5.442,13.508,12.538,14.587l-0.003,0.021
	l6.975,1.025c0,0.002-0.001,0.002-0.001,0.004l14.331,2.153c1.108,0.241,1.956,1.181,1.956,2.36c0,1.296-1.008,2.326-2.277,2.427
	c-0.063,0.005-0.119,0.038-0.186,0.038h-14.324h-19.238V88.12h33.563c7.194,0,13.151-5.226,14.323-12.084
	c0.138-0.804,0.225-1.622,0.225-2.464c0-7.524-5.712-13.713-13.035-14.469v-0.002l-6.313-0.953l-13.971-2.234l0.003-0.034
	c-1.277-0.11-2.29-1.151-2.29-2.459c0-1.381,1.118-2.501,2.501-2.501c0.022,0,0.043,0.014,0.064,0.014l0.001-0.015l14.463-0.104
	l18.88-0.082V38.647h-33.408C314.305,38.647,308.291,43.859,307.026,50.732"/>
<rect x="-55.5" y="-164.349" fill="none" width="720" height="405.349"/>
</svg>
